%TF.GenerationSoftware,KiCad,Pcbnew,(6.0.9)*%
%TF.CreationDate,2023-06-30T12:05:42-04:00*%
%TF.ProjectId,TH3D Ruler,54483344-2052-4756-9c65-722e6b696361,rev?*%
%TF.SameCoordinates,Original*%
%TF.FileFunction,Copper,L2,Bot*%
%TF.FilePolarity,Positive*%
%FSLAX46Y46*%
G04 Gerber Fmt 4.6, Leading zero omitted, Abs format (unit mm)*
G04 Created by KiCad (PCBNEW (6.0.9)) date 2023-06-30 12:05:42*
%MOMM*%
%LPD*%
G01*
G04 APERTURE LIST*
%TA.AperFunction,NonConductor*%
%ADD10C,0.000000*%
%TD*%
%TA.AperFunction,ViaPad*%
%ADD11C,2.600010*%
%TD*%
%TA.AperFunction,ViaPad*%
%ADD12C,4.101010*%
%TD*%
%TA.AperFunction,ViaPad*%
%ADD13C,0.814010*%
%TD*%
%TA.AperFunction,ViaPad*%
%ADD14C,2.101010*%
%TD*%
%TA.AperFunction,ViaPad*%
%ADD15C,3.101010*%
%TD*%
%TA.AperFunction,ViaPad*%
%ADD16C,1.291010*%
%TD*%
%TA.AperFunction,ViaPad*%
%ADD17C,0.643010*%
%TD*%
%TA.AperFunction,ViaPad*%
%ADD18C,1.631010*%
%TD*%
%TA.AperFunction,ViaPad*%
%ADD19C,5.101010*%
%TD*%
%TA.AperFunction,ViaPad*%
%ADD20C,0.511010*%
%TD*%
%TA.AperFunction,ViaPad*%
%ADD21C,2.050010*%
%TD*%
%TA.AperFunction,ViaPad*%
%ADD22C,1.021010*%
%TD*%
%TA.AperFunction,Conductor*%
%ADD23C,0.100000*%
%TD*%
G04 APERTURE END LIST*
D10*
G36*
X-80417920Y-98576890D02*
G01*
X-80417920Y-98804980D01*
X-80788250Y-98804980D01*
X-80788250Y-99135180D01*
X-80417920Y-99135180D01*
X-80417920Y-99376990D01*
X-80468210Y-99427280D01*
X-81268310Y-99427280D01*
X-81318090Y-99376990D01*
X-81318090Y-98576890D01*
X-81268310Y-98527100D01*
X-80468210Y-98527100D01*
X-80417920Y-98576890D01*
G37*
G36*
X-81847940Y-108426500D02*
G01*
X-81847940Y-108787690D01*
X-81948020Y-108887760D01*
X-82158840Y-108887760D01*
X-82258910Y-108987840D01*
X-82258910Y-109366300D01*
X-82158840Y-109466380D01*
X-81948020Y-109466380D01*
X-81847940Y-109566450D01*
X-81847940Y-109927640D01*
X-81948020Y-110027720D01*
X-82955890Y-110027720D01*
X-83055460Y-109927640D01*
X-83055460Y-108426500D01*
X-82955890Y-108326420D01*
X-81948020Y-108326420D01*
X-81847940Y-108426500D01*
G37*
G36*
X-81188050Y-104597200D02*
G01*
X-81188050Y-105109770D01*
X-81288120Y-105209840D01*
X-81678780Y-105209840D01*
X-81778850Y-105309920D01*
X-81778850Y-105844340D01*
X-81678780Y-105944410D01*
X-81288120Y-105944410D01*
X-81188050Y-106044490D01*
X-81188050Y-106557060D01*
X-81288120Y-106657140D01*
X-82758280Y-106657140D01*
X-82857840Y-106557060D01*
X-82857840Y-104597200D01*
X-82758280Y-104497120D01*
X-81288120Y-104497120D01*
X-81188050Y-104597200D01*
G37*
G36*
X-78857340Y-96446840D02*
G01*
X-78857340Y-96907090D01*
X-78897480Y-96947220D01*
X-79398360Y-96947220D01*
X-79437990Y-96907090D01*
X-79437990Y-96446840D01*
X-79398360Y-96407220D01*
X-78897480Y-96407220D01*
X-78857340Y-96446840D01*
G37*
G36*
X-78791300Y-112172990D02*
G01*
X-78791300Y-114781070D01*
X-78890870Y-114881140D01*
X-79973420Y-114881140D01*
X-80073490Y-114781070D01*
X-80073490Y-114054630D01*
X-79973420Y-113954550D01*
X-79737710Y-113954550D01*
X-79637630Y-113854470D01*
X-79637630Y-113099590D01*
X-79737710Y-113000020D01*
X-79973420Y-113000020D01*
X-80073490Y-112899940D01*
X-80073490Y-112172990D01*
X-79973420Y-112072920D01*
X-78890870Y-112072920D01*
X-78791300Y-112172990D01*
G37*
G36*
X-81773260Y-112072920D02*
G01*
X-81773260Y-112799870D01*
X-81873340Y-112899950D01*
X-82109050Y-112899950D01*
X-82209130Y-112999520D01*
X-82209130Y-113754400D01*
X-82109050Y-113854480D01*
X-81873340Y-113854480D01*
X-81773260Y-113954560D01*
X-81773260Y-114681000D01*
X-81873340Y-114781070D01*
X-82955890Y-114781070D01*
X-83055460Y-114681000D01*
X-83055460Y-112072920D01*
X-82955890Y-111972850D01*
X-81873340Y-111972850D01*
X-81773260Y-112072920D01*
G37*
G36*
X-83273380Y-117049300D02*
G01*
X-83273380Y-117989600D01*
X-83373460Y-118089680D01*
X-83609170Y-118089680D01*
X-83709250Y-118189760D01*
X-83709250Y-119164610D01*
X-83609170Y-119264680D01*
X-83373460Y-119264680D01*
X-83273380Y-119364760D01*
X-83273380Y-120305070D01*
X-83373460Y-120405140D01*
X-84455500Y-120405140D01*
X-84555570Y-120305070D01*
X-84555570Y-117049300D01*
X-84455500Y-116949220D01*
X-83373460Y-116949220D01*
X-83273380Y-117049300D01*
G37*
G36*
X-79354170Y-94539300D02*
G01*
X-79354170Y-94815150D01*
X-79378040Y-94839020D01*
X-79642200Y-94839020D01*
X-79666080Y-94815150D01*
X-79666080Y-94539300D01*
X-79642200Y-94514920D01*
X-79378040Y-94514920D01*
X-79354170Y-94539300D01*
G37*
G36*
X-78890870Y-116949220D02*
G01*
X-78890870Y-120204990D01*
X-78990440Y-120305060D01*
X-80072990Y-120305060D01*
X-80173060Y-120204990D01*
X-80173060Y-119264680D01*
X-80072990Y-119164600D01*
X-79837280Y-119164600D01*
X-79737200Y-119064530D01*
X-79737200Y-118089680D01*
X-79837280Y-117989600D01*
X-80072990Y-117989600D01*
X-80173060Y-117889520D01*
X-80173060Y-116949220D01*
X-80072990Y-116849140D01*
X-78990440Y-116849140D01*
X-78890870Y-116949220D01*
G37*
G36*
X-78887820Y-104597200D02*
G01*
X-78887820Y-106557060D01*
X-78987900Y-106657140D01*
X-80458050Y-106657140D01*
X-80558130Y-106557060D01*
X-80558130Y-106044490D01*
X-80458050Y-105944410D01*
X-80066890Y-105944410D01*
X-79967320Y-105844340D01*
X-79967320Y-105309920D01*
X-80066890Y-105209840D01*
X-80458050Y-105209840D01*
X-80558130Y-105109770D01*
X-80558130Y-104597200D01*
X-80458050Y-104497120D01*
X-78987900Y-104497120D01*
X-78887820Y-104597200D01*
G37*
G36*
X-78773020Y-101337360D02*
G01*
X-78773020Y-102617010D01*
X-78823310Y-102667300D01*
X-79972910Y-102667300D01*
X-80023200Y-102617010D01*
X-80018120Y-102196900D01*
X-79578200Y-102196900D01*
X-79578200Y-101747320D01*
X-80028280Y-101747320D01*
X-80023200Y-101337360D01*
X-79972910Y-101287070D01*
X-78823310Y-101287070D01*
X-78773020Y-101337360D01*
G37*
G36*
X-78890870Y-108426500D02*
G01*
X-78890870Y-109927640D01*
X-78990440Y-110027720D01*
X-79998310Y-110027720D01*
X-80098390Y-109927640D01*
X-80098390Y-109566450D01*
X-79998310Y-109466380D01*
X-79787490Y-109466380D01*
X-79687420Y-109366300D01*
X-79687420Y-108987840D01*
X-79787490Y-108887760D01*
X-79998310Y-108887760D01*
X-80098390Y-108787690D01*
X-80098390Y-108426500D01*
X-79998310Y-108326420D01*
X-78990440Y-108326420D01*
X-78890870Y-108426500D01*
G37*
G36*
X-79708240Y-96446840D02*
G01*
X-79708240Y-96907090D01*
X-79748380Y-96947220D01*
X-80248750Y-96947220D01*
X-80288890Y-96907090D01*
X-80288890Y-96446840D01*
X-80248750Y-96407220D01*
X-79748380Y-96407220D01*
X-79708240Y-96446840D01*
G37*
G36*
X-78880200Y-94539300D02*
G01*
X-78880200Y-94815150D01*
X-78904080Y-94839020D01*
X-79168240Y-94839020D01*
X-79192120Y-94815150D01*
X-79192120Y-94539300D01*
X-79168240Y-94514920D01*
X-78904080Y-94514920D01*
X-78880200Y-94539300D01*
G37*
G36*
X-80923380Y-101337360D02*
G01*
X-80927950Y-101747320D01*
X-81368390Y-101747320D01*
X-81368390Y-102196900D01*
X-80923380Y-102196900D01*
X-80923380Y-102617010D01*
X-80973160Y-102667300D01*
X-82123280Y-102667300D01*
X-82173060Y-102617010D01*
X-82173060Y-101337360D01*
X-82123280Y-101287070D01*
X-80973160Y-101287070D01*
X-80923380Y-101337360D01*
G37*
G36*
X-78828390Y-98576890D02*
G01*
X-78828390Y-99376990D01*
X-78878170Y-99427280D01*
X-79668110Y-99427280D01*
X-79718400Y-99376990D01*
X-79718400Y-99135180D01*
X-79338420Y-99135180D01*
X-79338420Y-98804980D01*
X-79718400Y-98804980D01*
X-79718400Y-98576890D01*
X-79668110Y-98527100D01*
X-78878170Y-98527100D01*
X-78828390Y-98576890D01*
G37*
D11*
%TO.N,*%
X-15273000Y-107277000D03*
X16027000Y-107277000D03*
D12*
X-2773000Y-108077000D03*
D13*
X30527000Y-106377000D03*
D14*
X-20673000Y-107077000D03*
D15*
X-9373000Y-107577000D03*
D16*
X25027000Y-106577000D03*
D17*
X32827000Y-106277000D03*
D18*
X22127000Y-106777000D03*
D19*
X4927000Y-108577000D03*
D20*
X35127000Y-106277000D03*
D21*
X19327000Y-106977000D03*
D22*
X27927000Y-106477000D03*
%TD*%
D23*
%TO.N,*%
X-79140340Y-96677070D02*
X-79140340Y-96677070D01*
X-81439430Y-101977080D02*
X-81439430Y-101977080D01*
X-79494400Y-109177070D02*
X-79494400Y-109177070D01*
X-82040550Y-105577080D02*
X-82040550Y-105577080D01*
X-79506900Y-101977080D02*
X-79506900Y-101977080D01*
X-80826410Y-98977060D02*
X-80826410Y-98977060D01*
X-82414420Y-113377090D02*
X-82414420Y-113377090D01*
X-79319920Y-98977060D02*
X-79319920Y-98977060D01*
X-79514720Y-94677070D02*
X-79514720Y-94677070D01*
X-79531900Y-113377090D02*
X-79531900Y-113377090D01*
X-79140340Y-96677070D02*
X-79140340Y-96677070D01*
X-79531900Y-118577080D02*
X-79531900Y-118577080D01*
X-83814420Y-118577080D02*
X-83814420Y-118577080D01*
X-79031610Y-94677070D02*
X-79031610Y-94677070D01*
X-79705530Y-105577080D02*
X-79705530Y-105577080D01*
X-82451930Y-109177070D02*
X-82451930Y-109177070D01*
X-80005990Y-96677070D02*
X-80005990Y-96677070D01*
%TD*%
M02*
