%TF.GenerationSoftware,KiCad,Pcbnew,(6.0.9)*%
%TF.CreationDate,2023-06-30T12:05:43-04:00*%
%TF.ProjectId,TH3D Ruler,54483344-2052-4756-9c65-722e6b696361,rev?*%
%TF.SameCoordinates,Original*%
%TF.FileFunction,Soldermask,Bot*%
%TF.FilePolarity,Negative*%
%FSLAX46Y46*%
G04 Gerber Fmt 4.6, Leading zero omitted, Abs format (unit mm)*
G04 Created by KiCad (PCBNEW (6.0.9)) date 2023-06-30 12:05:43*
%MOMM*%
%LPD*%
G01*
G04 APERTURE LIST*
%ADD10C,0.000000*%
G04 APERTURE END LIST*
D10*
G36*
X-80417920Y-98576890D02*
G01*
X-80417920Y-98804980D01*
X-80788250Y-98804980D01*
X-80788250Y-99135180D01*
X-80417920Y-99135180D01*
X-80417920Y-99376990D01*
X-80468210Y-99427280D01*
X-81268310Y-99427280D01*
X-81318090Y-99376990D01*
X-81318090Y-98576890D01*
X-81268310Y-98527100D01*
X-80468210Y-98527100D01*
X-80417920Y-98576890D01*
G37*
G36*
X-78773020Y-101337360D02*
G01*
X-78773020Y-102617010D01*
X-78823310Y-102667300D01*
X-79972910Y-102667300D01*
X-80023200Y-102617010D01*
X-80018120Y-102196900D01*
X-79578200Y-102196900D01*
X-79578200Y-101747320D01*
X-80028280Y-101747320D01*
X-80023200Y-101337360D01*
X-79972910Y-101287070D01*
X-78823310Y-101287070D01*
X-78773020Y-101337360D01*
G37*
G36*
X-78887820Y-104597200D02*
G01*
X-78887820Y-106557060D01*
X-78987900Y-106657140D01*
X-80458050Y-106657140D01*
X-80558130Y-106557060D01*
X-80558130Y-106044490D01*
X-80458050Y-105944410D01*
X-80066890Y-105944410D01*
X-79967320Y-105844340D01*
X-79967320Y-105309920D01*
X-80066890Y-105209840D01*
X-80458050Y-105209840D01*
X-80558130Y-105109770D01*
X-80558130Y-104597200D01*
X-80458050Y-104497120D01*
X-78987900Y-104497120D01*
X-78887820Y-104597200D01*
G37*
G36*
X-81773260Y-112072920D02*
G01*
X-81773260Y-112799870D01*
X-81873340Y-112899950D01*
X-82109050Y-112899950D01*
X-82209130Y-112999520D01*
X-82209130Y-113754400D01*
X-82109050Y-113854480D01*
X-81873340Y-113854480D01*
X-81773260Y-113954560D01*
X-81773260Y-114681000D01*
X-81873340Y-114781070D01*
X-82955890Y-114781070D01*
X-83055460Y-114681000D01*
X-83055460Y-112072920D01*
X-82955890Y-111972850D01*
X-81873340Y-111972850D01*
X-81773260Y-112072920D01*
G37*
G36*
X-78890870Y-116949220D02*
G01*
X-78890870Y-120204990D01*
X-78990440Y-120305060D01*
X-80072990Y-120305060D01*
X-80173060Y-120204990D01*
X-80173060Y-119264680D01*
X-80072990Y-119164600D01*
X-79837280Y-119164600D01*
X-79737200Y-119064530D01*
X-79737200Y-118089680D01*
X-79837280Y-117989600D01*
X-80072990Y-117989600D01*
X-80173060Y-117889520D01*
X-80173060Y-116949220D01*
X-80072990Y-116849140D01*
X-78990440Y-116849140D01*
X-78890870Y-116949220D01*
G37*
G36*
X-80923380Y-101337360D02*
G01*
X-80927950Y-101747320D01*
X-81368390Y-101747320D01*
X-81368390Y-102196900D01*
X-80923380Y-102196900D01*
X-80923380Y-102617010D01*
X-80973160Y-102667300D01*
X-82123280Y-102667300D01*
X-82173060Y-102617010D01*
X-82173060Y-101337360D01*
X-82123280Y-101287070D01*
X-80973160Y-101287070D01*
X-80923380Y-101337360D01*
G37*
G36*
X-78890870Y-112072920D02*
G01*
X-78890870Y-114681000D01*
X-78990440Y-114781070D01*
X-80072990Y-114781070D01*
X-80173060Y-114681000D01*
X-80173060Y-113954560D01*
X-80072990Y-113854480D01*
X-79837280Y-113854480D01*
X-79737200Y-113754400D01*
X-79737200Y-112999520D01*
X-79837280Y-112899950D01*
X-80072990Y-112899950D01*
X-80173060Y-112799870D01*
X-80173060Y-112072920D01*
X-80072990Y-111972850D01*
X-78990440Y-111972850D01*
X-78890870Y-112072920D01*
G37*
G36*
X-81188050Y-104597200D02*
G01*
X-81188050Y-105109770D01*
X-81288120Y-105209840D01*
X-81678780Y-105209840D01*
X-81778850Y-105309920D01*
X-81778850Y-105844340D01*
X-81678780Y-105944410D01*
X-81288120Y-105944410D01*
X-81188050Y-106044490D01*
X-81188050Y-106557060D01*
X-81288120Y-106657140D01*
X-82758280Y-106657140D01*
X-82857840Y-106557060D01*
X-82857840Y-104597200D01*
X-82758280Y-104497120D01*
X-81288120Y-104497120D01*
X-81188050Y-104597200D01*
G37*
G36*
X-78890870Y-108426500D02*
G01*
X-78890870Y-109927640D01*
X-78990440Y-110027720D01*
X-79998310Y-110027720D01*
X-80098390Y-109927640D01*
X-80098390Y-109566450D01*
X-79998310Y-109466380D01*
X-79787490Y-109466380D01*
X-79687420Y-109366300D01*
X-79687420Y-108987840D01*
X-79787490Y-108887760D01*
X-79998310Y-108887760D01*
X-80098390Y-108787690D01*
X-80098390Y-108426500D01*
X-79998310Y-108326420D01*
X-78990440Y-108326420D01*
X-78890870Y-108426500D01*
G37*
G36*
X-78857340Y-96446840D02*
G01*
X-78857340Y-96907090D01*
X-78897480Y-96947220D01*
X-79398360Y-96947220D01*
X-79437990Y-96907090D01*
X-79437990Y-96446840D01*
X-79398360Y-96407220D01*
X-78897480Y-96407220D01*
X-78857340Y-96446840D01*
G37*
G36*
X-78828390Y-98576890D02*
G01*
X-78828390Y-99376990D01*
X-78878170Y-99427280D01*
X-79668110Y-99427280D01*
X-79718400Y-99376990D01*
X-79718400Y-99135180D01*
X-79338420Y-99135180D01*
X-79338420Y-98804980D01*
X-79718400Y-98804980D01*
X-79718400Y-98576890D01*
X-79668110Y-98527100D01*
X-78878170Y-98527100D01*
X-78828390Y-98576890D01*
G37*
G36*
X-83173310Y-116949220D02*
G01*
X-83173310Y-117889520D01*
X-83273390Y-117989600D01*
X-83509100Y-117989600D01*
X-83609180Y-118089680D01*
X-83609180Y-119064530D01*
X-83509100Y-119164600D01*
X-83273390Y-119164600D01*
X-83173310Y-119264680D01*
X-83173310Y-120204990D01*
X-83273390Y-120305060D01*
X-84355430Y-120305060D01*
X-84455500Y-120204990D01*
X-84455500Y-116949220D01*
X-84355430Y-116849140D01*
X-83273390Y-116849140D01*
X-83173310Y-116949220D01*
G37*
G36*
X-79354170Y-94539300D02*
G01*
X-79354170Y-94815150D01*
X-79378040Y-94839020D01*
X-79642200Y-94839020D01*
X-79666080Y-94815150D01*
X-79666080Y-94539300D01*
X-79642200Y-94514920D01*
X-79378040Y-94514920D01*
X-79354170Y-94539300D01*
G37*
G36*
X-78880200Y-94539300D02*
G01*
X-78880200Y-94815150D01*
X-78904080Y-94839020D01*
X-79168240Y-94839020D01*
X-79192120Y-94815150D01*
X-79192120Y-94539300D01*
X-79168240Y-94514920D01*
X-78904080Y-94514920D01*
X-78880200Y-94539300D01*
G37*
G36*
X-81847940Y-108426500D02*
G01*
X-81847940Y-108787690D01*
X-81948020Y-108887760D01*
X-82158840Y-108887760D01*
X-82258910Y-108987840D01*
X-82258910Y-109366300D01*
X-82158840Y-109466380D01*
X-81948020Y-109466380D01*
X-81847940Y-109566450D01*
X-81847940Y-109927640D01*
X-81948020Y-110027720D01*
X-82955890Y-110027720D01*
X-83055460Y-109927640D01*
X-83055460Y-108426500D01*
X-82955890Y-108326420D01*
X-81948020Y-108326420D01*
X-81847940Y-108426500D01*
G37*
G36*
X-79708240Y-96446840D02*
G01*
X-79708240Y-96907090D01*
X-79748380Y-96947220D01*
X-80248750Y-96947220D01*
X-80288890Y-96907090D01*
X-80288890Y-96446840D01*
X-80248750Y-96407220D01*
X-79748380Y-96407220D01*
X-79708240Y-96446840D01*
G37*
M02*
